<?xml version="1.0" encoding="UTF-8" standalone="no"?>
<!DOCTYPE svg PUBLIC "-//W3C//DTD SVG 1.1//EN"
 "http://www.w3.org/Graphics/SVG/1.1/DTD/svg11.dtd">
<!-- Generated by graphviz version 2.40.1 (20161225.0304)
 -->
<!-- Title: dependencies Pages: 1 -->
<svg width="538pt" height="284pt"
 viewBox="0.00 0.00 538.00 284.00" xmlns="http://www.w3.org/2000/svg" xmlns:xlink="http://www.w3.org/1999/xlink">
<g id="graph0" class="graph" transform="scale(1 1) rotate(0) translate(4 280)">
<title>dependencies</title>
<polygon fill="#ffffff" stroke="transparent" points="-4,4 -4,-280 534,-280 534,4 -4,4"/>
<text text-anchor="start" x="244.0091" y="-42.4" font-family="sans-serif" font-weight="bold" font-size="14.00" fill="#000000">Legend</text>
<polygon fill="#ffffb3" stroke="transparent" points="31,-10 31,-30 51,-30 51,-10 31,-10"/>
<text text-anchor="start" x="54.629" y="-15.4" font-family="sans-serif" font-size="14.00" fill="#000000"> &#160;Declarations</text>
<polygon fill="#8dd3c7" stroke="transparent" points="144,-10 144,-30 164,-30 164,-10 144,-10"/>
<text text-anchor="start" x="167.7251" y="-15.4" font-family="sans-serif" font-size="14.00" fill="#000000"> &#160;Module</text>
<polygon fill="#80b1d3" stroke="transparent" points="230,-10 230,-30 250,-30 250,-10 230,-10"/>
<text text-anchor="start" x="253.7812" y="-15.4" font-family="sans-serif" font-size="14.00" fill="#000000"> &#160;Bootstrap</text>
<polygon fill="#fdb462" stroke="transparent" points="327,-10 327,-30 347,-30 347,-10 327,-10"/>
<text text-anchor="start" x="350.6732" y="-15.4" font-family="sans-serif" font-size="14.00" fill="#000000"> &#160;Providers</text>
<polygon fill="#fb8072" stroke="transparent" points="423,-10 423,-30 443,-30 443,-10 423,-10"/>
<text text-anchor="start" x="446.7258" y="-15.4" font-family="sans-serif" font-size="14.00" fill="#000000"> &#160;Exports</text>
<g id="clust1" class="cluster">
<title>cluster_AppModule</title>
<polygon fill="none" stroke="#000000" stroke-dasharray="1,5" points="8,-70 8,-268 522,-268 522,-70 8,-70"/>
</g>
<g id="clust2" class="cluster">
<title>cluster_AppModule_declarations</title>
<polygon fill="none" stroke="#000000" points="16,-78 16,-130 514,-130 514,-78 16,-78"/>
</g>
<g id="clust8" class="cluster">
<title>cluster_AppModule_bootstrap</title>
<polygon fill="none" stroke="#000000" points="237,-208 237,-260 361,-260 361,-208 237,-208"/>
</g>
<!-- AppComponent -->
<g id="node1" class="node">
<title>AppComponent</title>
<polygon fill="#ffffb3" stroke="#000000" points="505.9399,-122 400.0601,-122 400.0601,-86 505.9399,-86 505.9399,-122"/>
<text text-anchor="middle" x="453" y="-99.8" font-family="Times,serif" font-size="14.00" fill="#000000">AppComponent</text>
</g>
<!-- AppModule -->
<g id="node4" class="node">
<title>AppModule</title>
<polygon fill="#8dd3c7" stroke="#000000" points="340.6571,-187 337.6571,-191 316.6571,-191 313.6571,-187 257.3429,-187 257.3429,-151 340.6571,-151 340.6571,-187"/>
<text text-anchor="middle" x="299" y="-164.8" font-family="Times,serif" font-size="14.00" fill="#000000">AppModule</text>
</g>
<!-- AppComponent&#45;&gt;AppModule -->
<g id="edge1" class="edge">
<title>AppComponent&#45;&gt;AppModule</title>
<path fill="none" stroke="#000000" d="M453,-122.1061C453,-141.3391 453,-169 453,-169 453,-169 350.6746,-169 350.6746,-169"/>
<polygon fill="#000000" stroke="#000000" points="350.6747,-165.5001 340.6746,-169 350.6746,-172.5001 350.6747,-165.5001"/>
</g>
<!-- CreateMessageComponent -->
<g id="node2" class="node">
<title>CreateMessageComponent</title>
<polygon fill="#ffffb3" stroke="#000000" points="382.3417,-122 215.6583,-122 215.6583,-86 382.3417,-86 382.3417,-122"/>
<text text-anchor="middle" x="299" y="-99.8" font-family="Times,serif" font-size="14.00" fill="#000000">CreateMessageComponent</text>
</g>
<!-- CreateMessageComponent&#45;&gt;AppModule -->
<g id="edge2" class="edge">
<title>CreateMessageComponent&#45;&gt;AppModule</title>
<path fill="none" stroke="#000000" d="M299,-122.1061C299,-122.1061 299,-140.991 299,-140.991"/>
<polygon fill="#000000" stroke="#000000" points="295.5001,-140.9909 299,-150.991 302.5001,-140.991 295.5001,-140.9909"/>
</g>
<!-- DateTimePickerComponent -->
<g id="node3" class="node">
<title>DateTimePickerComponent</title>
<polygon fill="#ffffb3" stroke="#000000" points="197.5702,-122 24.4298,-122 24.4298,-86 197.5702,-86 197.5702,-122"/>
<text text-anchor="middle" x="111" y="-99.8" font-family="Times,serif" font-size="14.00" fill="#000000">DateTimePickerComponent</text>
</g>
<!-- DateTimePickerComponent&#45;&gt;AppModule -->
<g id="edge3" class="edge">
<title>DateTimePickerComponent&#45;&gt;AppModule</title>
<path fill="none" stroke="#000000" d="M111,-122.1061C111,-141.3391 111,-169 111,-169 111,-169 247.2767,-169 247.2767,-169"/>
<polygon fill="#000000" stroke="#000000" points="247.2767,-172.5001 257.2767,-169 247.2767,-165.5001 247.2767,-172.5001"/>
</g>
<!-- AppComponent  -->
<g id="node5" class="node">
<title>AppComponent </title>
<polygon fill="#80b1d3" stroke="#000000" points="353.439,-252 244.561,-252 244.561,-216 353.439,-216 353.439,-252"/>
<text text-anchor="middle" x="299" y="-229.8" font-family="Times,serif" font-size="14.00" fill="#000000">AppComponent </text>
</g>
<!-- AppModule&#45;&gt;AppComponent  -->
<g id="edge4" class="edge">
<title>AppModule&#45;&gt;AppComponent </title>
<path fill="none" stroke="#000000" stroke-dasharray="1,5" d="M299,-187.1061C299,-187.1061 299,-205.991 299,-205.991"/>
<polygon fill="#000000" stroke="#000000" points="295.5001,-205.9909 299,-215.991 302.5001,-205.991 295.5001,-205.9909"/>
</g>
</g>
</svg>
